# xmcd CD database file
#
# Track frame offsets:
#	150
#	19449
#	40158
#	61246
#	89834
#	122008
#	162164
#
# Disc length: 2736 seconds
#
# Revision: 1
# Processed by: cddbd v1.4PL0 Copyright (c) Steve Scherf et al.
# Submitted via: CDex 1.50Beta6
#
DISCID=5a0aae07
DTITLE=Gary Moore - Live Hamburg Grosse Freiheit 13.3. CD1
DYEAR=2000
DGENRE=Blues
TTITLE0=Walking by myself
TTITLE1=Since I met you Baby
TTITLE2=Pretty WOman
TTITLE3=Lost in your Love
TTITLE4=Loved another woman
TTITLE5=Need your Love so bad
TTITLE6=Surrender
EXTD=YEAR: 2000
EXTT0=
EXTT1=
EXTT2=
EXTT3=
EXTT4=
EXTT5=
EXTT6=
PLAYORDER=
